<svg width="793" height="595" viewBox="0 0 793 595" fill="none" xmlns="http://www.w3.org/2000/svg">
<g clip-path="url(#clip0_231_426)">
<path d="M46.726 539.797C47.2067 557.733 50.2124 575.512 55.6543 592.609C55.775 593.006 55.9088 593.397 56.0391 593.794H89.3547C89.3198 593.438 89.2835 593.041 89.2485 592.609C87.0273 567.079 99.7175 413.548 115.031 386.976C113.689 389.131 44.1429 458.676 46.726 539.797Z" fill="#F0F0F0"/>
<path d="M49.226 592.609C49.5047 593.006 49.7943 593.403 50.0911 593.794H75.0853C74.8959 593.456 74.6763 593.059 74.4217 592.609C70.293 585.16 58.0722 562.887 46.7286 539.797C34.5427 514.983 23.3535 489.229 24.2958 479.907C24.0037 482.008 15.5679 546.098 49.226 592.609Z" fill="#F0F0F0"/>
<path d="M163.219 458.354H745.64V10.0737H163.219V458.354Z" fill="white"/>
<path d="M163.219 458.354H745.64V10.0737H163.219V458.354ZM737.035 449.751H171.824V18.6776H737.035V449.751Z" fill="#E5E5E5"/>
<path d="M628.586 364.669H676.279C677.571 364.667 678.809 363.947 679.722 362.668C680.636 361.388 681.149 359.653 681.151 357.844V265.72C681.149 263.911 680.636 262.176 679.722 260.896C678.809 259.617 677.571 258.897 676.279 258.895H628.586C627.295 258.897 626.057 259.617 625.143 260.896C624.23 262.176 623.716 263.911 623.715 265.72V357.844C623.716 359.653 624.23 361.388 625.143 362.668C626.057 363.947 627.295 364.667 628.586 364.669Z" fill="#E6E6E6"/>
<path d="M541.928 364.669H589.621C590.913 364.667 592.151 363.976 593.064 362.748C593.978 361.52 594.491 359.855 594.493 358.119V185.862C594.491 184.126 593.978 182.461 593.064 181.233C592.151 180.005 590.913 179.314 589.621 179.312H541.928C540.637 179.314 539.399 180.005 538.485 181.233C537.572 182.461 537.058 184.126 537.057 185.862V358.119C537.058 359.855 537.572 361.52 538.485 362.748C539.399 363.976 540.637 364.667 541.928 364.669Z" fill="#E6E6E6"/>
<path d="M454.263 364.669H501.956C503.247 364.666 504.485 363.768 505.399 362.172C506.312 360.576 506.826 358.411 506.827 356.153V241.219C506.826 238.961 506.312 236.796 505.399 235.2C504.485 233.604 503.247 232.706 501.956 232.703H454.263C452.971 232.706 451.733 233.604 450.82 235.2C449.906 236.796 449.393 238.961 449.391 241.219V356.153C449.393 358.411 449.906 360.576 450.82 362.172C451.733 363.768 452.971 364.666 454.263 364.669Z" fill="#E6E6E6"/>
<path d="M367.605 364.667H415.298C416.56 364.705 417.781 364.055 418.694 362.86C419.608 361.666 420.138 360.024 420.169 358.295V148.414C420.138 146.684 419.608 145.043 418.694 143.848C417.781 142.654 416.56 142.004 415.298 142.041H367.605C366.343 142.004 365.121 142.654 364.208 143.848C363.295 145.043 362.765 146.684 362.733 148.414V358.295C362.765 360.024 363.295 361.666 364.208 362.86C365.121 364.055 366.343 364.705 367.605 364.667Z" fill="#E6E6E6"/>
<path d="M280.947 364.669H328.64C329.931 364.667 331.17 364.019 332.083 362.866C332.996 361.714 333.51 360.152 333.511 358.522V109.906C333.51 108.276 332.996 106.714 332.083 105.561C331.17 104.409 329.931 103.761 328.64 103.759H280.947C279.655 103.761 278.417 104.409 277.504 105.561C276.591 106.714 276.077 108.276 276.075 109.906V358.522C276.077 360.152 276.591 361.714 277.504 362.866C278.417 364.019 279.655 364.667 280.947 364.669Z" fill="#F2F2F2"/>
<path d="M183.376 578.951L198.167 578.95L205.204 521.913L183.373 521.914L183.376 578.951Z" fill="#FFB6B6"/>
<path d="M179.603 593.285L227.298 593.284V592.68C227.298 587.758 225.342 583.038 221.86 579.558C218.379 576.077 213.657 574.122 208.734 574.122H208.733L179.602 574.123L179.603 593.285Z" fill="#2F2E41"/>
<path d="M236.238 337.534L227.841 471.295L199.645 565.449L177.801 567.03L188.77 452.282L183.961 376.078C183.961 376.078 161.161 359.087 173.767 338.634L236.238 337.534Z" fill="#2F2E41"/>
<path d="M173.723 578.951L188.516 578.95L195.552 521.913L173.721 521.914L173.723 578.951Z" fill="#FFB6B6"/>
<path d="M169.951 593.285L217.646 593.284V592.68C217.645 587.758 215.689 583.038 212.208 579.558C208.727 576.077 204.005 574.122 199.082 574.122H199.08L169.95 574.123L169.951 593.285Z" fill="#2F2E41"/>
<path d="M226.586 337.534L218.189 471.295L189.993 565.449L168.149 567.03L179.118 452.282L174.309 376.078C174.309 376.078 151.508 359.087 164.115 338.634L226.586 337.534Z" fill="#2F2E41"/>
<path d="M181.063 358.247C206.252 358.247 235.899 342.858 237.617 341.954L238.095 341.702L180.283 194.258L151.652 180.735C149.447 179.694 147.005 179.26 144.576 179.478C142.148 179.695 139.821 180.557 137.837 181.974C135.853 183.391 134.283 185.311 133.289 187.537C132.296 189.763 131.914 192.214 132.184 194.636L143.546 296.536L155.406 349.313L155.532 349.437C162.078 355.902 171.233 358.247 181.063 358.247Z" fill="#3F3D56"/>
<path d="M273.444 260.642C271.946 259.692 270.259 259.082 268.499 258.856C266.74 258.629 264.953 258.79 263.263 259.329C261.573 259.867 260.022 260.77 258.718 261.972C257.415 263.175 256.391 264.649 255.719 266.29L212.669 263.939L223.964 283.282L263.114 282.549C265.947 283.495 269.028 283.369 271.774 282.196C274.519 281.022 276.739 278.883 278.013 276.182C279.286 273.482 279.524 270.408 278.682 267.544C277.84 264.68 275.977 262.224 273.444 260.642Z" fill="#FFB6B6"/>
<path d="M188.487 290.921L231.63 289.82L231.073 261.29L210.672 254.798L177.209 207.877C175.534 205.528 173.404 203.538 170.946 202.026C168.488 200.513 165.752 199.509 162.899 199.072C160.046 198.635 157.134 198.775 154.336 199.482C151.538 200.19 148.91 201.451 146.608 203.191C144.306 204.932 142.376 207.116 140.933 209.615C139.49 212.113 138.563 214.876 138.206 217.74C137.85 220.603 138.071 223.509 138.857 226.285C139.643 229.061 140.978 231.652 142.783 233.903L188.487 290.921Z" fill="#3F3D56"/>
<path d="M163.507 175.302C147.675 175.302 134.84 162.471 134.84 146.643C134.84 130.815 147.675 117.984 163.507 117.984C179.34 117.984 192.174 130.815 192.174 146.643C192.174 162.471 179.34 175.302 163.507 175.302Z" fill="#FFB6B6"/>
<path d="M199.775 122.761C196.882 119.795 193.122 117.823 189.037 117.128C185.056 116.272 180.688 116.006 177.503 113.51C173.883 110.627 172.291 105.151 167.851 103.932C165.919 103.544 163.918 103.703 162.072 104.391C154.977 106.53 148.678 110.728 143.974 116.453C142.865 118.093 141.452 119.506 139.811 120.614C138.83 121.029 137.872 121.496 136.94 122.013C135.917 122.82 135.113 123.869 134.599 125.065C131.398 131.525 130.66 138.931 132.524 145.896C133.634 150.009 135.637 153.82 136.819 157.957C138.001 162.095 143.47 169.965 144.749 168.011C146.028 166.057 147.668 164.236 148.368 161.98C149.734 157.543 148.501 153.078 151.973 149.997C154.121 148.091 158.006 146.812 159.465 149.273C160.045 150.226 160.008 151.432 160.503 152.421C161.48 154.351 164.304 154.737 166.174 153.627C167.976 152.383 169.243 150.505 169.721 148.368C172.532 138.864 177.322 132.881 187.493 136.946C191.281 138.465 195.745 139.491 199.389 136.885C204.191 133.46 203.214 126.669 199.775 122.761Z" fill="#2F2E41"/>
<path d="M263.817 380.787H311.51C312.801 380.785 314.04 380.044 314.953 378.727C315.866 377.41 316.38 375.625 316.381 373.762V89.629C316.38 87.7666 315.866 85.981 314.953 84.6642C314.04 83.3473 312.801 82.6066 311.51 82.6045H263.817C262.525 82.6066 261.287 83.3473 260.374 84.6642C259.461 85.981 258.947 87.7666 258.945 89.629V373.762C258.947 375.625 259.461 377.41 260.374 378.727C261.287 380.044 262.525 380.785 263.817 380.787Z" fill="#6C63FF"/>
<path d="M274.651 277.528C273.153 276.578 271.465 275.969 269.706 275.742C267.947 275.515 266.159 275.677 264.469 276.215C262.779 276.754 261.228 277.656 259.925 278.859C258.622 280.061 257.598 281.535 256.926 283.176L213.875 280.825L225.171 300.169L264.321 299.436C267.153 300.381 270.234 300.256 272.98 299.082C275.726 297.909 277.946 295.769 279.219 293.069C280.492 290.369 280.731 287.295 279.889 284.431C279.047 281.566 277.183 279.11 274.651 277.528Z" fill="#FFB6B6"/>
<path d="M189.693 307.807L232.836 306.707L232.279 278.176L211.879 271.685L178.416 224.764C176.74 222.414 174.611 220.425 172.153 218.912C169.695 217.4 166.958 216.395 164.105 215.959C161.253 215.522 158.341 215.661 155.543 216.369C152.745 217.076 150.117 218.337 147.815 220.078C145.513 221.818 143.583 224.002 142.14 226.501C140.697 229 139.769 231.763 139.413 234.626C139.056 237.489 139.277 240.395 140.064 243.171C140.85 245.948 142.185 248.538 143.989 250.79L189.693 307.807Z" fill="#3F3D56"/>
<path d="M1.20651 595H460.89C461.048 595 461.206 594.97 461.352 594.909C461.499 594.849 461.633 594.76 461.745 594.648C461.857 594.536 461.947 594.403 462.007 594.256C462.068 594.11 462.1 593.952 462.1 593.794C462.1 593.635 462.068 593.478 462.007 593.331C461.947 593.185 461.857 593.052 461.745 592.94C461.633 592.828 461.499 592.739 461.352 592.678C461.206 592.618 461.048 592.587 460.89 592.588H1.20651C1.04779 592.587 0.890503 592.618 0.743713 592.678C0.596924 592.739 0.463562 592.828 0.351135 592.94C0.238739 593.052 0.149506 593.185 0.0886536 593.331C0.0278015 593.478 -0.003479 593.635 -0.003479 593.794C-0.003479 593.952 0.0278015 594.11 0.0886536 594.256C0.149506 594.403 0.238739 594.536 0.351135 594.648C0.463562 594.76 0.596924 594.849 0.743713 594.909C0.890503 594.97 1.04779 595 1.20651 595Z" fill="#CACACA"/>
</g>
<defs>
<clipPath id="clip0_231_426">
<rect width="793" height="595" fill="white" transform="matrix(-1 0 0 1 793 0)"/>
</clipPath>
</defs>
</svg>
